<?xml version="1.0" encoding="UTF-8" standalone="no"?>
<svg
   viewBox="0 0 120 120"
   version="1.1"
   id="svg2"
   sodipodi:docname="bushopper.svg"
   inkscape:version="1.4.2 (f4327f4, 2025-05-13)"
   xmlns:inkscape="http://www.inkscape.org/namespaces/inkscape"
   xmlns:sodipodi="http://sodipodi.sourceforge.net/DTD/sodipodi-0.dtd"
   xmlns:xlink="http://www.w3.org/1999/xlink"
   xmlns="http://www.w3.org/2000/svg"
   xmlns:svg="http://www.w3.org/2000/svg">
  <defs
     id="defs2">
    <linearGradient
       id="linearGradient38"
       inkscape:collect="always">
      <stop
         style="stop-color:#00cc6a;stop-opacity:1;"
         offset="0"
         id="stop38" />
      <stop
         style="stop-color:#00c867;stop-opacity:1;"
         offset="1"
         id="stop39" />
    </linearGradient>
    <linearGradient
       id="linearGradient36"
       inkscape:collect="always">
      <stop
         style="stop-color:#00cc6a;stop-opacity:1;"
         offset="0"
         id="stop36" />
      <stop
         style="stop-color:#00943d;stop-opacity:1;"
         offset="1"
         id="stop37" />
    </linearGradient>
    <linearGradient
       id="linearGradient34"
       inkscape:collect="always">
      <stop
         style="stop-color:#3ecf8e;stop-opacity:1;"
         offset="0"
         id="stop34" />
      <stop
         style="stop-color:#00943d;stop-opacity:1;"
         offset="1"
         id="stop35" />
    </linearGradient>
    <linearGradient
       inkscape:collect="always"
       xlink:href="#linearGradient34"
       id="linearGradient35"
       x1="-80.658015"
       y1="35.153522"
       x2="3.3343091"
       y2="35.153522"
       gradientUnits="userSpaceOnUse"
       gradientTransform="matrix(0.93244098,0.36132557,0.36106961,-0.9325389,81.961926,143.30902)" />
    <linearGradient
       inkscape:collect="always"
       xlink:href="#linearGradient36"
       id="linearGradient37"
       x1="-68.684196"
       y1="93.15078"
       x2="4.978518"
       y2="93.15078"
       gradientUnits="userSpaceOnUse"
       gradientTransform="matrix(0.93244098,0.36132557,0.36106961,-0.9325389,81.961926,143.30902)" />
    <linearGradient
       inkscape:collect="always"
       xlink:href="#linearGradient38"
       id="linearGradient39"
       x1="3.5599345"
       y1="46.04335"
       x2="53.267787"
       y2="46.04335"
       gradientUnits="userSpaceOnUse"
       gradientTransform="translate(1.4400655,0.52441053)" />
  </defs>
  <sodipodi:namedview
     id="namedview2"
     pagecolor="#000000"
     bordercolor="#000000"
     borderopacity="0.25"
     inkscape:showpageshadow="2"
     inkscape:pageopacity="0.0"
     inkscape:pagecheckerboard="0"
     inkscape:deskcolor="#d1d1d1"
     inkscape:zoom="6.4839293"
     inkscape:cx="56.138798"
     inkscape:cy="57.758187"
     inkscape:window-width="1920"
     inkscape:window-height="1166"
     inkscape:window-x="-11"
     inkscape:window-y="-11"
     inkscape:window-maximized="1"
     inkscape:current-layer="svg2" />
  <path
     fill="#00454d"
     d="M 88.488282,36.402397 C 87.658111,32.614715 85.084531,31.110016 81.182674,29.605323 77.384622,28.10063 68.211113,26.336479 61.434771,26.284601 c -6.786718,0.05225 -15.949791,1.826382 -19.778986,3.320722 -3.870729,1.494337 -6.475451,3.009392 -7.264101,6.786703 l -2.905626,20.91018 V 86.1198 h 5.022606 v 4.493369 c -0.02052,5.531035 8.613114,5.531035 8.633824,0.02052 v -4.514037 h 32.605333 v 4.493351 c -0.02052,5.531079 8.613116,5.531079 8.613116,0.02052 v -4.514051 h 5.032975 V 57.302195 Z M 49.096236,31.566606 h 24.677128 c 2.40749,0 2.40749,3.393389 0,3.403756 H 49.106618 c -2.438634,0 -2.438634,-3.362232 0,-3.362232 V 31.56659 Z M 40.794472,77.09162 c -2.283001,0 -4.150894,-1.732994 -4.150894,-3.881133 0,-2.127291 1.847109,-3.860316 4.088587,-3.860316 2.262249,0 4.150938,1.743384 4.150938,3.870749 -0.03076,2.158443 -1.888689,3.8707 -4.182037,3.881053 h 0.08302 z M 61.113081,59.481435 H 39.113356 c -2.179229,0.02052 -2.594308,-1.432086 -2.407532,-2.86412 l 2.282977,-15.181926 c 0.311337,-1.826393 0.975483,-3.030185 3.569806,-3.050909 h 37.75238 c 2.625464,0 3.258491,1.224516 3.580181,3.050909 l 2.324495,15.181926 c 0.207566,1.452816 -0.259451,2.874479 -2.386743,2.874479 H 61.144233 Z M 82.033628,77.09162 c -2.231106,0 -4.150895,-1.732994 -4.150895,-3.881133 0,-2.127291 1.909419,-3.860316 4.150895,-3.860316 2.314129,0 4.150886,1.743384 4.233906,3.870749 0,2.158443 -1.847113,3.8707 -4.150885,3.881053 h -0.08302 z"
     id="path1"
     style="fill:#ffffff;fill-opacity:1;stroke-width:1.03758" />
  <path
     style="baseline-shift:baseline;display:inline;overflow:visible;opacity:1;vector-effect:none;fill:url(#linearGradient37);stroke-linecap:round;stroke-dasharray:101.408, 9.21894;enable-background:accumulate;stop-color:#000000;stop-opacity:1"
     d="m 107.60584,85.857439 a 1.5367014,1.5362804 66.053806 0 1 -0.72515,-2.048872 c 0.57438,-1.203074 1.10335,-2.427692 1.58492,-3.671466 1.65703,-4.275773 2.75265,-8.770936 3.23169,-13.328488 l -0.002,-7.41e-4 c 0.53139,-5.028418 0.31582,-10.139717 -0.63486,-15.107474 l -0.002,-6.92e-4 c -1.05236,-5.513791 -3.00566,-10.858231 -5.75498,-15.753077 l -0.002,-6.9e-4 c -2.5579,-4.5589 -5.807385,-8.731642 -9.605639,-12.320722 C 92.269662,20.38391 88.39225,17.616178 84.214813,15.42457 79.146637,12.765632 73.641577,10.933537 67.990985,10.048927 66.106839,9.7538283 64.205683,9.5621503 62.30157,9.4780573 a 1.5367014,1.5362804 66.053806 0 1 -1.467337,-1.603346 1.5367014,1.5362804 66.053806 0 1 1.602764,-1.4672877 c 2.019138,0.089188 4.032118,0.2930855 6.027816,0.6056382 5.989538,0.9376855 11.812009,2.8759835 17.176421,5.6903292 4.427008,2.322535 8.533201,5.251533 12.166213,8.687998 4.026523,3.804773 7.465043,8.222827 10.174783,13.052364 l 7.3e-4,-0.0019 c 2.91245,5.185265 4.97943,10.839961 6.09457,16.682723 1.00739,5.264084 1.2381,10.673487 0.67489,16.004829 l -7.4e-4,0.0019 c -0.5081,4.832204 -1.66729,9.589662 -3.42137,14.115885 -0.5095,1.315887 -1.06865,2.613311 -1.67684,3.887205 a 1.5367014,1.5362804 66.053806 0 1 -2.04764,0.723047 z"
     id="path13" />
  <path
     style="baseline-shift:baseline;display:inline;overflow:visible;opacity:1;vector-effect:none;fill:url(#linearGradient39);stroke-linecap:round;stroke-dasharray:101.408, 9.21894;enable-background:accumulate;stop-color:#000000;stop-opacity:1"
     d="M 10.597097,85.477329 C 9.5158165,83.265464 8.58473,80.981802 7.8087849,78.64706 6.0622544,73.393398 5.111476,67.878216 5.0096519,62.340641 4.9151748,57.34302 5.5149584,52.337464 6.7793961,47.503054 8.0217427,42.752707 9.8939065,38.167563 12.338697,33.907721 c 2.475078,-4.31416 5.540069,-8.28416 9.089077,-11.768802 4.099533,-4.02926 8.834803,-7.401189 13.975367,-9.967506 5.50386,-2.7507257 11.466489,-4.5747597 17.571043,-5.3630847 a 1.5367014,1.5362804 66.053806 0 1 1.721047,1.326732 1.5367014,1.5362804 66.053806 0 1 -1.327955,1.720391 C 47.607403,10.599265 41.972961,12.322792 36.776866,14.919871 l -7.34e-4,0.0019 -0.0019,-7.34e-4 c -4.852651,2.422575 -9.324847,5.609326 -13.191979,9.410176 l -0.0019,-7.34e-4 c -3.347582,3.286863 -6.242915,7.038326 -8.577761,11.108138 -2.307963,4.021509 -4.077043,8.353986 -5.2506395,12.841476 -1.1930444,4.561413 -1.757834,9.289817 -1.6687299,14.003264 0.096048,5.223265 0.9924585,10.435591 2.6410854,15.394753 0.733149,2.205971 1.61373,4.362995 2.633961,6.449977 A 1.5367014,1.5362804 66.053806 0 1 12.652378,86.18379 1.5367014,1.5362804 66.053806 0 1 10.59691,85.477351 Z"
     id="path12" />
  <path
     style="baseline-shift:baseline;display:inline;overflow:visible;opacity:1;vector-effect:none;fill:url(#linearGradient35);stroke-linecap:round;stroke-dasharray:101.408, 9.21894;enable-background:accumulate;stop-color:#000000;stop-opacity:1"
     d="m 44.089142,113.99998 c -2.673064,-0.81329 -5.284304,-1.82719 -7.805241,-3.0309 -4.534778,-2.16418 -8.770801,-4.9526 -12.547844,-8.27033 -3.086154,-2.709711 -5.866863,-5.768038 -8.270557,-9.099193 a 1.5367014,1.5362804 66.053806 0 1 0.346582,-2.144665 1.5367014,1.5362804 66.053806 0 1 2.144341,0.347082 c 2.268013,3.143122 4.893424,6.030845 7.80649,8.588416 l 0.0019,7.3e-4 c 3.562238,3.12904 7.562135,5.76155 11.842367,7.80425 4.76462,2.27495 9.873248,3.83623 15.094799,4.58624 4.815662,0.69437 9.732171,0.70015 14.550363,0.0205 l 0.0019,7.4e-4 7.34e-4,-0.002 c 5.356742,-0.75303 10.595784,-2.35254 15.463833,-4.71338 l 0.0019,7.3e-4 c 4.878933,-2.36344 9.388893,-5.49508 13.300411,-9.246671 2.332559,-2.236408 4.45482,-4.691603 6.32532,-7.324586 a 1.5367014,1.5362804 66.053806 0 1 2.14214,-0.361664 1.5367014,1.5362804 66.053806 0 1 0.36206,2.142774 c -1.98398,2.792613 -4.23315,5.392926 -6.704252,7.762167 -4.146049,3.97653 -8.917952,7.28923 -14.085737,9.79277 -5.156555,2.50078 -10.701217,4.19373 -16.377956,4.99174 -5.105941,0.72021 -10.312201,0.71464 -15.417163,-0.0213 l -0.0019,-7.4e-4 c -2.767346,-0.3976 -5.502076,-1.0098 -8.174524,-1.82291 z"
     id="circle3" />
  <ellipse
     style="fill:#000000;fill-opacity:1;stroke:#00943d;stroke-width:2.311;stroke-linecap:round;stroke-dasharray:none;stroke-dashoffset:0;stroke-opacity:1"
     id="path21"
     cx="-24.084398"
     cy="-135.79688"
     rx="5"
     ry="5.0000062"
     transform="matrix(0.5,-0.8660254,-0.8660254,-0.5,0,0)" />
  <ellipse
     style="fill:#000000;fill-opacity:1;stroke:#00cc6a;stroke-width:2.311;stroke-linecap:round;stroke-dasharray:none;stroke-dashoffset:0;stroke-opacity:1"
     id="circle33"
     cx="22.384268"
     cy="-55.872505"
     rx="5"
     ry="5.0000062"
     transform="matrix(0.5,-0.8660254,-0.8660254,-0.5,0,0)" />
  <ellipse
     style="fill:#000000;fill-opacity:1;stroke:#3ecf8e;stroke-width:2.311;stroke-linecap:round;stroke-dasharray:none;stroke-dashoffset:0;stroke-opacity:1"
     id="circle34"
     cx="-70.352295"
     cy="-56.796661"
     rx="5"
     ry="5.0000062"
     transform="matrix(0.5,-0.8660254,-0.8660254,-0.5,0,0)" />
  <ellipse
     style="fill:#00cb6a;fill-opacity:1;stroke:none;stroke-width:2.311;stroke-linecap:round"
     id="path55"
     cx="12.769531"
     cy="36.769531"
     ry="0.6484375"
     rx="0.76953125" />
</svg>
